<mxfile host="d2d15c6f-e531-4222-aaf5-7949060173cb" modified="2021-01-25T16:49:23.302Z" agent="5.0 (Macintosh; Intel Mac OS X 11_0_0) AppleWebKit/537.36 (KHTML, like Gecko) Code/1.52.0 Chrome/83.0.4103.122 Electron/9.3.5 Safari/537.36" etag="hSZaZMDfeDTRfAlrXvfn" version="13.1.3" pages="3">
    <diagram id="oO5ik2dgjUzaUumrPrOO" name="base">
        <mxGraphModel dx="1138" dy="557" grid="1" gridSize="10" guides="1" tooltips="1" connect="1" arrows="1" fold="1" page="1" pageScale="1" pageWidth="827" pageHeight="1169" math="0" shadow="0">
            <root>
                <mxCell id="E_lD1YyarEx3l_IE5Qs4-0"/>
                <mxCell id="E_lD1YyarEx3l_IE5Qs4-1" parent="E_lD1YyarEx3l_IE5Qs4-0"/>
                <mxCell id="E_lD1YyarEx3l_IE5Qs4-2" value="&lt;table cellpadding=&quot;4&quot; cellspacing=&quot;0&quot; border=&quot;1&quot; style=&quot;font-size: 1em ; width: 100% ; height: 100%&quot;&gt;&lt;tbody&gt;&lt;tr&gt;&lt;th&gt;functions&lt;/th&gt;&lt;th&gt;notes&lt;/th&gt;&lt;/tr&gt;&lt;tr&gt;&lt;td&gt;basic&lt;/td&gt;&lt;td&gt;&lt;ol&gt;&lt;li&gt;&lt;font face=&quot;Courier New&quot;&gt;id()&lt;/font&gt;&lt;/li&gt;&lt;li&gt;&lt;font face=&quot;Courier New&quot;&gt;type()&lt;/font&gt;&lt;/li&gt;&lt;li&gt;&lt;font face=&quot;Courier New&quot;&gt;repr()&lt;/font&gt;&lt;/li&gt;&lt;li&gt;&lt;font face=&quot;Courier New&quot;&gt;str()&lt;/font&gt;&lt;/li&gt;&lt;li&gt;&lt;font face=&quot;Courier New&quot;&gt;dir()&lt;/font&gt;&lt;/li&gt;&lt;li&gt;&lt;font face=&quot;Courier New&quot;&gt;getattr()&lt;/font&gt;&lt;/li&gt;&lt;li&gt;&lt;font face=&quot;Courier New&quot;&gt;isinstance(): isinstance(True, int) =&amp;gt; True&lt;/font&gt;&lt;/li&gt;&lt;li&gt;&lt;font face=&quot;Courier New&quot;&gt;issubclass()&lt;/font&gt;&lt;/li&gt;&lt;li&gt;&lt;font face=&quot;Courier New&quot;&gt;class.__mro__ &lt;/font&gt;&lt;/li&gt;&lt;li&gt;&lt;font face=&quot;Courier New&quot;&gt;class.mro()&lt;/font&gt;&lt;/li&gt;&lt;li&gt;&lt;font face=&quot;Courier New&quot;&gt;class.__bases__ &lt;/font&gt;&lt;/li&gt;&lt;li&gt;&lt;font face=&quot;Courier New&quot;&gt;sys.getsizeof() - &lt;/font&gt;return the size of objects in bytes &lt;/li&gt;&lt;li&gt;&lt;font face=&quot;Courier New&quot;&gt;os.path.abspath(__file__) &lt;/font&gt;&lt;/li&gt;&lt;li&gt;&lt;font face=&quot;Courier New&quot;&gt;os.path.dirname()&lt;/font&gt;&lt;/li&gt;&lt;li&gt;&lt;font face=&quot;Courier New&quot;&gt;os.path.join()&lt;/font&gt;&lt;/li&gt;&lt;li&gt;&lt;font face=&quot;Courier New&quot;&gt;&quot;.&quot;.join()&lt;/font&gt;&lt;/li&gt;&lt;/ol&gt;&lt;/td&gt;&lt;/tr&gt;&lt;tr&gt;&lt;td&gt;False value&lt;/td&gt;&lt;td&gt;&lt;div&gt;&lt;font face=&quot;Courier New&quot;&gt;&lt;br&gt;&lt;/font&gt;&lt;/div&gt;&lt;ol&gt;&lt;li&gt;&lt;font face=&quot;Courier New&quot;&gt;0; 0.0; 0j&lt;/font&gt;&lt;/li&gt;&lt;li&gt;&lt;font face=&quot;Courier New&quot;&gt;&quot;&quot;&lt;/font&gt;&lt;/li&gt;&lt;li&gt;&lt;font face=&quot;Courier New&quot;&gt;False&lt;/font&gt;&lt;/li&gt;&lt;li&gt;&lt;font face=&quot;Courier New&quot;&gt;[]&lt;/font&gt;&lt;/li&gt;&lt;li&gt;&lt;font face=&quot;Courier New&quot;&gt;()&lt;/font&gt;&lt;/li&gt;&lt;li&gt;&lt;font face=&quot;Courier New&quot;&gt;{}&lt;/font&gt;&lt;/li&gt;&lt;li&gt;&lt;font face=&quot;Courier New&quot;&gt;None&lt;/font&gt;&lt;/li&gt;&lt;/ol&gt;&lt;/td&gt;&lt;/tr&gt;&lt;/tbody&gt;&lt;/table&gt; " style="verticalAlign=top;align=left;overflow=fill;fontSize=12;fontFamily=Helvetica;html=1" parent="E_lD1YyarEx3l_IE5Qs4-1" vertex="1">
                    <mxGeometry x="30" y="50" width="450" height="490" as="geometry"/>
                </mxCell>
            </root>
        </mxGraphModel>
    </diagram>
    <diagram id="pkRIOWLQjdbOFaUVDesV" name="db">
        <mxGraphModel dx="1138" dy="557" grid="1" gridSize="10" guides="1" tooltips="1" connect="1" arrows="1" fold="1" page="1" pageScale="1" pageWidth="827" pageHeight="1169" math="0" shadow="0">
            <root>
                <mxCell id="vlL5MvciL2pP799zOfHA-0"/>
                <mxCell id="vlL5MvciL2pP799zOfHA-1" parent="vlL5MvciL2pP799zOfHA-0"/>
                <mxCell id="anLUWzV4gdDXxF_3hHiv-0" value="&lt;table cellpadding=&quot;4&quot; cellspacing=&quot;0&quot; border=&quot;1&quot; style=&quot;font-size: 1em ; width: 100% ; height: 100%&quot;&gt;&lt;tbody&gt;&lt;tr&gt;&lt;th&gt;Db&lt;/th&gt;&lt;th&gt;Package&lt;/th&gt;&lt;/tr&gt;&lt;tr&gt;&lt;td&gt;mysql&lt;/td&gt;&lt;td&gt;&lt;h3&gt;mysqlclient&lt;/h3&gt;&lt;/td&gt;&lt;/tr&gt;&lt;tr&gt;&lt;td&gt;postgresql&lt;/td&gt;&lt;td&gt;&lt;h3&gt;psycopg2-binary&lt;/h3&gt;&lt;/td&gt;&lt;/tr&gt;&lt;tr&gt;&lt;td&gt;sqlserver&lt;/td&gt;&lt;td&gt;&lt;h3&gt;pymssql&lt;/h3&gt;&lt;h3&gt;dependencies&lt;/h3&gt;&lt;div&gt;&lt;font face=&quot;Courier New&quot;&gt;yum install&amp;nbsp;freetds-devel&amp;nbsp;unixODBC-devel&lt;/font&gt;&lt;/div&gt;&lt;div&gt;&lt;font face=&quot;Courier New&quot;&gt;export C_INCLUDE_PATH=/usr/include&lt;br&gt;&lt;/font&gt;&lt;/div&gt;&lt;div&gt;&lt;ol&gt;&lt;li&gt;&lt;font face=&quot;Courier New&quot;&gt;freetds-devel- &lt;/font&gt;for &lt;font face=&quot;Courier New&quot;&gt;sqlfont.h&lt;br&gt;&lt;/font&gt;&lt;/li&gt;&lt;li&gt;&lt;font face=&quot;Courier New&quot;&gt;unixODBC-devel - &lt;/font&gt;for &lt;font face=&quot;Courier New&quot;&gt;sql.h&lt;br&gt;&lt;/font&gt;&lt;/li&gt;&lt;li&gt;&lt;font face=&quot;Courier New&quot;&gt;C_INCLUDE_PATH - &lt;/font&gt;find &lt;font face=&quot;Courier New&quot;&gt;sql.h&lt;/font&gt;, or other path for head files&lt;br&gt;&lt;/li&gt;&lt;/ol&gt;&lt;/div&gt;&lt;/td&gt;&lt;/tr&gt;&lt;tr&gt;&lt;td&gt;hive&lt;/td&gt;&lt;td&gt;&lt;h3&gt;pyhive[hive]&lt;/h3&gt;&lt;h3&gt;dependencies&lt;/h3&gt;&lt;div&gt;&lt;font face=&quot;Courier New&quot;&gt;yum install cyrus-sasl-devel&amp;nbsp;cyrus-sasl-plain&amp;nbsp;&lt;/font&gt;&lt;span&gt;&lt;font face=&quot;Courier New&quot;&gt;thrift-sasl&lt;/font&gt;&lt;/span&gt;&lt;br&gt;&lt;/div&gt;&lt;div&gt;&lt;ol&gt;&lt;li&gt;&lt;font face=&quot;Courier New&quot;&gt;thrift-sasl - &lt;/font&gt;when meets &quot;TSaslClientTransport' object has no attribute 'readAll'&quot;&lt;br&gt;&lt;/li&gt;&lt;/ol&gt;&lt;/div&gt;&lt;/td&gt;&lt;/tr&gt;&lt;tr&gt;&lt;td&gt;SQLAlchemy&lt;/td&gt;&lt;td&gt;&lt;h3&gt;connection string&lt;/h3&gt;&lt;div&gt;&lt;font face=&quot;Courier New&quot;&gt;prefix://username:password@host:port/databasename?parameter=value&lt;/font&gt;&lt;/div&gt;&lt;h4&gt;prefix&lt;/h4&gt;&lt;div&gt;&lt;ol&gt;&lt;li&gt;&lt;font face=&quot;Courier New&quot;&gt;postgresql+psycopg2 - &lt;/font&gt;postgresql&lt;br&gt;&lt;/li&gt;&lt;li&gt;&lt;font face=&quot;Courier New&quot;&gt;mysql - &lt;/font&gt;mysql&lt;/li&gt;&lt;li&gt;&lt;font face=&quot;Courier New&quot;&gt;mssql+pymssq - &lt;/font&gt;sqlserver&lt;br&gt;&lt;/li&gt;&lt;/ol&gt;&lt;h4&gt;parameter&lt;/h4&gt;&lt;/div&gt;&lt;div&gt;&lt;ol&gt;&lt;li&gt;&lt;font face=&quot;Courier New&quot;&gt;charset=utf8 -&lt;/font&gt;&amp;nbsp;for mysql specifies encoding&lt;br&gt;&lt;/li&gt;&lt;/ol&gt;&lt;/div&gt;&lt;/td&gt;&lt;/tr&gt;&lt;/tbody&gt;&lt;/table&gt; " style="verticalAlign=top;align=left;overflow=fill;fontSize=12;fontFamily=Helvetica;html=1" parent="vlL5MvciL2pP799zOfHA-1" vertex="1">
                    <mxGeometry x="10" y="10" width="720" height="720" as="geometry"/>
                </mxCell>
            </root>
        </mxGraphModel>
    </diagram>
    <diagram id="_El7k1EOV9T-uXvAMhDj" name="packages">
        <mxGraphModel dx="1138" dy="557" grid="1" gridSize="10" guides="1" tooltips="1" connect="1" arrows="1" fold="1" page="1" pageScale="1" pageWidth="827" pageHeight="1169" math="0" shadow="0">
            <root>
                <mxCell id="vKEUba6q0JigRjRWASb1-0"/>
                <mxCell id="vKEUba6q0JigRjRWASb1-1" parent="vKEUba6q0JigRjRWASb1-0"/>
                <mxCell id="yvMjEhH-0kmtY-j-1BoZ-0" value="&lt;table cellpadding=&quot;4&quot; cellspacing=&quot;0&quot; border=&quot;1&quot; style=&quot;font-size: 1em ; width: 100% ; height: 100%&quot;&gt;&lt;tbody&gt;&lt;tr&gt;&lt;th&gt;packages&lt;/th&gt;&lt;th&gt;notes&lt;/th&gt;&lt;/tr&gt;&lt;tr&gt;&lt;td&gt;http.server&lt;/td&gt;&lt;td&gt;&lt;font face=&quot;Courier New&quot;&gt;python -m http.server 8888&lt;/font&gt;&lt;/td&gt;&lt;/tr&gt;&lt;/tbody&gt;&lt;/table&gt; " style="verticalAlign=top;align=left;overflow=fill;fontSize=12;fontFamily=Helvetica;html=1" parent="vKEUba6q0JigRjRWASb1-1" vertex="1">
                    <mxGeometry x="40" y="30" width="430" height="70" as="geometry"/>
                </mxCell>
            </root>
        </mxGraphModel>
    </diagram>
</mxfile>
